HIERARCHY
ROOT mixamorig:Hips
{
	OFFSET 0.00 0.00 0.00
	CHANNELS 6 Xposition Yposition Zposition Zrotation Yrotation Xrotation
	JOINT mixamorig:Spine
	{
		OFFSET	0.0000	9.9235	-1.2273
		CHANNELS 3 Zrotation Yrotation Xrotation
		JOINT mixamorig:Spine1
		{
			OFFSET	-0.0001	11.6455	-1.4224
			CHANNELS 3 Zrotation Yrotation Xrotation
			JOINT mixamorig:Spine2
			{
				OFFSET	0.0001	13.3602	-1.6265
				CHANNELS 3 Zrotation Yrotation Xrotation
				JOINT mixamorig:Neck
				{
					OFFSET	0.0000	15.0325	0.7929
					CHANNELS 3 Zrotation Yrotation Xrotation
					JOINT mixamorig:Head
					{
						OFFSET	-0.0000	10.3218	3.1424
						CHANNELS 3 Zrotation Yrotation Xrotation
						JOINT mixamorig:HeadTop_End
						{
							OFFSET	0.0002	18.4747	6.6364
							CHANNELS 3 Zrotation Yrotation Xrotation
							End Site
							{
								OFFSET 0.0000 0.0000 0.0000
							}
						}
						JOINT mixamorig:LeftEye
						{
							OFFSET	2.9479	7.6817	9.1207
							CHANNELS 3 Zrotation Yrotation Xrotation
							End Site
							{
								OFFSET 0.0000 0.0000 0.0000
							}
						}
						JOINT mixamorig:RightEye
						{
							OFFSET	-2.9445	7.6817	9.1205
							CHANNELS 3 Zrotation Yrotation Xrotation
							End Site
							{
								OFFSET 0.0000 0.0000 0.0000
							}
						}
					}
				}
				JOINT mixamorig:LeftShoulder
				{
					OFFSET	6.1059	9.1104	0.7056
					CHANNELS 3 Zrotation Yrotation Xrotation
					JOINT mixamorig:LeftArm
					{
						OFFSET	12.6532	-0.3431	-2.6009
						CHANNELS 3 Zrotation Yrotation Xrotation
						JOINT mixamorig:LeftForeArm
						{
							OFFSET	27.3517	-0.9645	-1.4034
							CHANNELS 3 Zrotation Yrotation Xrotation
							JOINT mixamorig:LeftHand
							{
								OFFSET	27.5619	-0.7072	1.5500
								CHANNELS 3 Zrotation Yrotation Xrotation
								JOINT mixamorig:LeftHandMiddle1
								{
									OFFSET	12.6630	-1.3962	0.9548
									CHANNELS 3 Zrotation Yrotation Xrotation
									JOINT mixamorig:LeftHandMiddle2
									{
										OFFSET	3.6093	-0.1669	0.0778
										CHANNELS 3 Zrotation Yrotation Xrotation
										JOINT mixamorig:LeftHandMiddle3
										{
											OFFSET	3.4004	-0.6274	0.1148
											CHANNELS 3 Zrotation Yrotation Xrotation
											End Site
											{
												OFFSET 3.6205 -0.6493 0.1199
											}
										}
									}
								}
								JOINT mixamorig:LeftHandThumb1
								{
									OFFSET	3.3268	-2.0474	3.5790
									CHANNELS 3 Zrotation Yrotation Xrotation
									JOINT mixamorig:LeftHandThumb2
									{
										OFFSET	3.4890	-1.4806	2.8548
										CHANNELS 3 Zrotation Yrotation Xrotation
										JOINT mixamorig:LeftHandThumb3
										{
											OFFSET	3.4086	-1.7658	2.1133
											CHANNELS 3 Zrotation Yrotation Xrotation
											End Site
											{
												OFFSET 2.7231 -1.1597 1.7903
											}
										}
									}
								}
								JOINT mixamorig:LeftHandIndex1
								{
									OFFSET	11.9722	-1.1061	3.7324
									CHANNELS 3 Zrotation Yrotation Xrotation
									JOINT mixamorig:LeftHandIndex2
									{
										OFFSET	3.8387	-0.6406	-0.0310
										CHANNELS 3 Zrotation Yrotation Xrotation
										JOINT mixamorig:LeftHandIndex3
										{
											OFFSET	3.3346	-0.7374	-0.0133
											CHANNELS 3 Zrotation Yrotation Xrotation
											End Site
											{
												OFFSET 2.9714 -0.8030 0.0009
											}
										}
									}
								}
								JOINT mixamorig:LeftHandRing1
								{
									OFFSET	12.1659	-1.6805	-1.2769
									CHANNELS 3 Zrotation Yrotation Xrotation
									JOINT mixamorig:LeftHandRing2
									{
										OFFSET	3.5925	-0.2366	-0.0771
										CHANNELS 3 Zrotation Yrotation Xrotation
										JOINT mixamorig:LeftHandRing3
										{
											OFFSET	3.2906	-0.3266	-0.0615
											CHANNELS 3 Zrotation Yrotation Xrotation
											End Site
											{
												OFFSET 3.5423 -0.9211 -0.0200
											}
										}
									}
								}
								JOINT mixamorig:LeftHandPinky1
								{
									OFFSET	11.0508	-2.1872	-3.8040
									CHANNELS 3 Zrotation Yrotation Xrotation
									JOINT mixamorig:LeftHandPinky2
									{
										OFFSET	4.1236	-0.3047	0.1212
										CHANNELS 3 Zrotation Yrotation Xrotation
										JOINT mixamorig:LeftHandPinky3
										{
											OFFSET	2.5805	-0.2597	0.0823
											CHANNELS 3 Zrotation Yrotation Xrotation
											End Site
											{
												OFFSET 2.9027 -0.3379 0.0963
											}
										}
									}
								}
							}
						}
					}
				}
				JOINT mixamorig:RightShoulder
				{
					OFFSET	-6.1057	9.1105	0.7056
					CHANNELS 3 Zrotation Yrotation Xrotation
					JOINT mixamorig:RightArm
					{
						OFFSET	-12.6532	-0.3429	-2.6009
						CHANNELS 3 Zrotation Yrotation Xrotation
						JOINT mixamorig:RightForeArm
						{
							OFFSET	-27.3518	-0.9642	-1.4034
							CHANNELS 3 Zrotation Yrotation Xrotation
							JOINT mixamorig:RightHand
							{
								OFFSET	-27.5619	-0.7068	1.5501
								CHANNELS 3 Zrotation Yrotation Xrotation
								JOINT mixamorig:RightHandMiddle1
								{
									OFFSET	-12.6630	-1.3960	0.9549
									CHANNELS 3 Zrotation Yrotation Xrotation
									JOINT mixamorig:RightHandMiddle2
									{
										OFFSET	-3.6093	-0.1669	0.0778
										CHANNELS 3 Zrotation Yrotation Xrotation
										JOINT mixamorig:RightHandMiddle3
										{
											OFFSET	-3.4004	-0.6273	0.1148
											CHANNELS 3 Zrotation Yrotation Xrotation
											End Site
											{
												OFFSET -3.6205 -0.6492 0.1199
											}
										}
									}
								}
								JOINT mixamorig:RightHandThumb1
								{
									OFFSET	-3.3269	-2.0474	3.5790
									CHANNELS 3 Zrotation Yrotation Xrotation
									JOINT mixamorig:RightHandThumb2
									{
										OFFSET	-3.4890	-1.4805	2.8548
										CHANNELS 3 Zrotation Yrotation Xrotation
										JOINT mixamorig:RightHandThumb3
										{
											OFFSET	-3.4086	-1.7658	2.1133
											CHANNELS 3 Zrotation Yrotation Xrotation
											End Site
											{
												OFFSET -2.7231 -1.1596 1.7903
											}
										}
									}
								}
								JOINT mixamorig:RightHandIndex1
								{
									OFFSET	-11.9722	-1.1059	3.7324
									CHANNELS 3 Zrotation Yrotation Xrotation
									JOINT mixamorig:RightHandIndex2
									{
										OFFSET	-3.8387	-0.6406	-0.0310
										CHANNELS 3 Zrotation Yrotation Xrotation
										JOINT mixamorig:RightHandIndex3
										{
											OFFSET	-3.3346	-0.7373	-0.0133
											CHANNELS 3 Zrotation Yrotation Xrotation
											End Site
											{
												OFFSET -2.9715 -0.8029 0.0009
											}
										}
									}
								}
								JOINT mixamorig:RightHandRing1
								{
									OFFSET	-12.1659	-1.6803	-1.2769
									CHANNELS 3 Zrotation Yrotation Xrotation
									JOINT mixamorig:RightHandRing2
									{
										OFFSET	-3.5925	-0.2366	-0.0771
										CHANNELS 3 Zrotation Yrotation Xrotation
										JOINT mixamorig:RightHandRing3
										{
											OFFSET	-3.2906	-0.3265	-0.0615
											CHANNELS 3 Zrotation Yrotation Xrotation
											End Site
											{
												OFFSET -3.5423 -0.9210 -0.0200
											}
										}
									}
								}
								JOINT mixamorig:RightHandPinky1
								{
									OFFSET	-11.0508	-2.1870	-3.8040
									CHANNELS 3 Zrotation Yrotation Xrotation
									JOINT mixamorig:RightHandPinky2
									{
										OFFSET	-4.1236	-0.3046	0.1212
										CHANNELS 3 Zrotation Yrotation Xrotation
										JOINT mixamorig:RightHandPinky3
										{
											OFFSET	-2.5805	-0.2597	0.0823
											CHANNELS 3 Zrotation Yrotation Xrotation
											End Site
											{
												OFFSET -2.9027 -0.3379 0.0963
											}
										}
									}
								}
							}
						}
					}
				}
			}
		}
	}
	JOINT mixamorig:RightUpLeg
	{
		OFFSET	-9.1245	-6.6564	-0.0554
		CHANNELS 3 Zrotation Yrotation Xrotation
		JOINT mixamorig:RightLeg
		{
			OFFSET	0.0000	-40.5610	-1.7662
			CHANNELS 3 Zrotation Yrotation Xrotation
			JOINT mixamorig:RightFoot
			{
				OFFSET	0.4978	-41.9625	-3.3512
				CHANNELS 3 Zrotation Yrotation Xrotation
				JOINT mixamorig:RightToeBase
				{
					OFFSET	-0.3734	-10.4922	12.6406
					CHANNELS 3 Zrotation Yrotation Xrotation
					End Site
					{
						OFFSET 0.0000 0.0000 9.9925
					}
				}
			}
		}
	}
	JOINT mixamorig:LeftUpLeg
	{
		OFFSET	9.1245	-6.6564	-0.0554
		CHANNELS 3 Zrotation Yrotation Xrotation
		JOINT mixamorig:LeftLeg
		{
			OFFSET	-0.0000	-40.5610	-1.7662
			CHANNELS 3 Zrotation Yrotation Xrotation
			JOINT mixamorig:LeftFoot
			{
				OFFSET	-0.4978	-41.9625	-3.3512
				CHANNELS 3 Zrotation Yrotation Xrotation
				JOINT mixamorig:LeftToeBase
				{
					OFFSET	0.3734	-10.4922	12.6406
					CHANNELS 3 Zrotation Yrotation Xrotation
					End Site
					{
						OFFSET -0.0000 0.0000 9.9925
					}
				}
			}
		}
	}
}
MOTION
Frames: 4
Frame Time: 0.0333333
9.0990 96.2316 21.9185 3.3768 -32.9624 -7.5902 0.6090 -1.2358 2.3984 0.5391 -2.4477 5.3079 0.5843 -2.4283 5.3115 -1.0150 6.8714 -3.5634 -7.9379 33.8418 -0.7621 0.0000 -0.0000 0.0000 0.0000 -0.0000 0.0000 0.0000 -0.0000 0.0000 -8.7077 1.7416 0.5400 -58.5948 -42.7434 31.3046 0.1170 -46.3119 -1.5416 11.2654 9.1013 -83.1302 -26.1661 -3.6258 1.8121 -14.7839 -0.1988 0.4074 -11.5694 -0.4736 0.3436 -1.0898 -4.0497 3.0038 3.4194 -7.1449 -2.3704 -0.6572 -0.9279 1.6740 -19.3767 -5.4367 0.8152 -19.5820 -0.5616 -0.1273 -8.6360 -0.1574 -0.0421 -25.1292 -6.1085 1.4783 -20.6699 -0.7439 -0.3403 -2.3790 0.3015 0.0183 -24.5988 0.8488 1.9824 -20.9639 -4.5737 1.8823 -10.3904 -0.3645 0.3293 7.9488 18.1166 8.3100 51.1729 23.7010 29.6537 -5.2029 78.1726 -7.0626 -17.9830 -7.9389 10.6139 29.3180 3.6190 2.0688 17.8231 0.2721 0.4986 13.0970 0.5125 0.3971 1.0723 -7.2976 3.7287 -0.8489 -18.4907 1.6064 1.6452 -9.8987 2.3872 22.5205 5.4600 1.0703 22.6381 0.6421 -0.1296 10.1640 0.1965 -0.0486 28.2761 6.1062 1.7347 23.7248 0.8458 -0.3691 3.9069 -0.2582 -0.0105 27.7247 3.2262 1.9324 24.1041 0.7175 0.8250 11.9179 0.4029 0.3832 -14.6156 -9.8665 -4.7902 -1.6008 7.9759 22.5905 13.9565 0.2333 -11.3864 0.0000 -0.0000 -1.0851 5.2572 20.2059 -13.8801 7.1641 7.4120 23.6031 -9.2595 4.8366 0.2193 -0.0000 -0.0000 -0.0098 
9.1110 96.2422 21.9367 3.3904 -33.0560 -7.5608 0.5989 -1.2085 2.3891 0.5272 -2.3907 5.2934 0.5709 -2.3715 5.2970 -1.0029 6.8745 -3.5700 -8.0133 33.8731 -0.8699 0.0000 -0.0000 0.0000 0.0000 -0.0000 0.0000 0.0000 -0.0000 0.0000 -8.6512 1.6548 0.5661 -58.5625 -42.7442 31.2423 0.1188 -46.3585 -1.5441 10.7560 9.1205 -83.3426 -26.1612 -3.6258 1.8117 -14.7754 -0.1985 0.4071 -11.5651 -0.4735 0.3435 -1.0899 -4.0487 3.0038 3.4195 -7.1457 -2.3705 -0.6571 -0.9283 1.6740 -19.3717 -5.4366 0.8148 -19.5735 -0.5613 -0.1273 -8.6317 -0.1573 -0.0421 -25.1243 -6.1085 1.4779 -20.6614 -0.7435 -0.3402 -2.3748 0.3017 0.0184 -24.5939 0.8489 1.9820 -20.9553 -4.5736 1.8814 -10.3861 -0.3643 0.3292 8.0507 18.1092 8.3345 51.0483 23.6383 29.5523 -5.2404 78.2343 -7.1010 -17.9362 -8.0903 10.6013 29.3180 3.6190 2.0688 17.8231 0.2721 0.4986 13.0970 0.5126 0.3971 1.0725 -7.3059 3.7295 -0.8540 -18.4084 1.5961 1.6424 -9.8575 2.3824 22.5205 5.4600 1.0703 22.6381 0.6421 -0.1296 10.1640 0.1965 -0.0486 28.2761 6.1062 1.7347 23.7248 0.8458 -0.3691 3.9069 -0.2582 -0.0105 27.7247 3.2262 1.9325 24.1041 0.7175 0.8250 11.9179 0.4029 0.3832 -14.6346 -9.7949 -4.8256 -1.5716 7.9640 22.5273 13.9515 0.2229 -11.3402 -0.0000 -0.0000 -1.0853 5.2347 20.1946 -13.8718 7.1543 7.4168 23.5627 -9.2613 4.9656 0.2062 0.0000 0.0000 -0.0099 
9.1286 96.2532 21.9460 3.3975 -33.1458 -7.5340 0.5996 -1.1874 2.3703 0.5270 -2.3441 5.2605 0.5685 -2.3249 5.2643 -1.0222 6.8882 -3.5154 -8.1131 33.9346 -0.9808 0.0000 -0.0000 0.0000 0.0000 -0.0000 0.0000 0.0000 -0.0000 0.0000 -8.7418 1.6201 0.5796 -58.4210 -42.7309 31.2783 0.1188 -46.3583 -1.5441 10.0493 8.9680 -83.7065 -26.1651 -3.6258 1.8121 -14.7747 -0.1985 0.4071 -11.5648 -0.4734 0.3435 -1.0899 -4.0486 3.0039 3.4196 -7.1469 -2.3707 -0.6571 -0.9289 1.6739 -19.3756 -5.4367 0.8152 -19.5728 -0.5613 -0.1273 -8.6313 -0.1573 -0.0421 -25.1282 -6.1085 1.4782 -20.6607 -0.7435 -0.3402 -2.3744 0.3017 0.0185 -24.5977 0.8488 1.9823 -20.9546 -4.5736 1.8813 -10.3857 -0.3643 0.3292 8.0942 18.1736 8.3708 50.9476 23.5341 29.3744 -5.2763 78.2928 -7.1376 -17.8429 -8.3471 10.6104 29.3180 3.6190 2.0688 17.8231 0.2721 0.4986 13.0970 0.5126 0.3971 1.0725 -7.3065 3.7295 -0.8577 -18.3545 1.5891 1.6403 -9.8305 2.3793 22.5205 5.4600 1.0703 22.6381 0.6421 -0.1296 10.1640 0.1965 -0.0486 28.2762 6.1062 1.7347 23.7249 0.8458 -0.3691 3.9069 -0.2582 -0.0105 27.7247 3.2262 1.9325 24.1041 0.7175 0.8250 11.9179 0.4029 0.3832 -14.6531 -9.7551 -4.8595 -1.5290 7.9802 22.4625 13.9382 0.2156 -11.2869 -0.0000 -0.0000 -1.0850 5.2165 20.2026 -13.8637 7.1475 7.4208 23.5185 -9.2584 5.0607 0.2038 -0.0000 0.0000 -0.0104 
9.1471 96.2599 21.9396 3.3829 -33.1917 -7.5055 0.6068 -1.1783 2.3500 0.5298 -2.3210 5.2243 0.5695 -2.3016 5.2281 -1.0401 6.9022 -3.4283 -8.2024 33.9972 -1.0795 0.0000 -0.0000 0.0000 0.0000 -0.0000 0.0000 0.0000 -0.0000 0.0000 -8.9111 1.6355 0.5788 -58.2106 -42.7317 31.3472 0.1167 -46.3063 -1.5412 9.2689 8.5865 -84.1320 -26.1765 -3.6259 1.8130 -14.7809 -0.1987 0.4073 -11.5679 -0.4735 0.3436 -1.0898 -4.0496 3.0038 3.4198 -7.1483 -2.3709 -0.6570 -0.9296 1.6738 -19.3871 -5.4369 0.8161 -19.5790 -0.5615 -0.1273 -8.6344 -0.1574 -0.0421 -25.1397 -6.1086 1.4792 -20.6669 -0.7437 -0.3403 -2.3775 0.3016 0.0184 -24.6091 0.8487 1.9832 -20.9608 -4.5736 1.8820 -10.3889 -0.3644 0.3293 8.1354 18.2762 8.4215 50.8827 23.4217 29.1333 -5.3072 78.3427 -7.1692 -17.6764 -8.5968 10.6124 29.3180 3.6190 2.0688 17.8231 0.2721 0.4986 13.0970 0.5126 0.3971 1.0722 -7.2974 3.7287 -0.8595 -18.3400 1.5868 1.6393 -9.8232 2.3782 22.5205 5.4600 1.0703 22.6381 0.6421 -0.1296 10.1640 0.1965 -0.0486 28.2761 6.1062 1.7347 23.7249 0.8458 -0.3691 3.9069 -0.2582 -0.0105 27.7247 3.2262 1.9325 24.1041 0.7175 0.8250 11.9179 0.4029 0.3832 -14.6498 -9.7503 -4.8874 -1.4934 8.0003 22.4199 13.9223 0.2096 -11.2435 0.0000 0.0000 -1.0842 5.2377 20.1502 -13.8712 7.1065 7.4373 23.5056 -9.2394 5.1607 0.1989 0.0000 -0.0000 -0.0115 
